<svg id="Layer_1" data-name="Layer 1" xmlns="http://www.w3.org/2000/svg" xmlns:xlink="http://www.w3.org/1999/xlink" viewBox="0 0 590 146"><defs><style>.cls-1,.cls-2{fill:none;}.cls-2{clip-path:url(#clip-path);clip-rule:evenodd;}.cls-3{clip-path:url(#clip-path-17);}.cls-4{clip-path:url(#clip-path-18);}.cls-5{clip-path:url(#clip-path-19);}.cls-6{clip-path:url(#clip-path-20);}.cls-7{clip-path:url(#clip-path-21);}.cls-8{clip-path:url(#clip-path-22);}.cls-9{clip-path:url(#clip-path-23);}.cls-10{clip-path:url(#clip-path-24);}.cls-11{fill:#7cac3f;}.cls-12{clip-path:url(#clip-path-25);}.cls-13{fill:#fff;}.cls-14{clip-path:url(#clip-path-26);}.cls-15{clip-path:url(#clip-path-27);}.cls-16{clip-path:url(#clip-path-28);}.cls-17{clip-path:url(#clip-path-29);}.cls-18{clip-path:url(#clip-path-30);}.cls-19{clip-path:url(#clip-path-31);}.cls-20{clip-path:url(#clip-path-32);}</style><clipPath id="clip-path"><rect class="cls-1" x="5.2" y="4.89" width="579" height="135"/></clipPath><clipPath id="clip-path-17"><path class="cls-2" d="M410.9,5.63c-8.87,0-13.89,4.26-17.47,13.2h-.26v-10A2.35,2.35,0,0,0,390.89,7H379a2.42,2.42,0,0,0-2.47,2.12l0,65.37a2.39,2.39,0,0,0,2.31,2.32h12.77a2.45,2.45,0,0,0,2.51-2.34V39.31c0-4.4.24-8.38,2-12.37a8.41,8.41,0,0,1,7.43-5.22c8.86,0,8,10.45,8,17.6V74.78a2.41,2.41,0,0,0,2.29,2h12.85a2.42,2.42,0,0,0,2.46-2V33.67c0-6.32,0-15.12-3.35-20.33-3.6-5.65-9.21-7.71-15-7.71"/></clipPath><clipPath id="clip-path-18"><path class="cls-2" d="M262.59,101.92c-24.08,17.63-59,27-89,27-42.12,0-80.06-15.46-108.77-41.2-2.24-2-.24-4.77,2.48-3.2,31,17.88,69.27,28.66,108.83,28.66a217.85,217.85,0,0,0,83-16.87c4.07-1.71,7.48,2.66,3.5,5.59"/></clipPath><clipPath id="clip-path-19"><path class="cls-2" d="M272.6,90.57c-3.08-3.92-20.36-1.87-28.11-.94-2.36.27-2.72-1.74-.6-3.23,13.79-9.62,36.37-6.83,39-3.62s-.68,25.71-13.61,36.43c-2,1.66-3.86.77-3-1.4,2.9-7.19,9.41-23.33,6.33-27.24"/></clipPath><clipPath id="clip-path-20"><path class="cls-2" d="M289.57,6.85H247.42A2.31,2.31,0,0,0,245,9.21v9.34a2.33,2.33,0,0,0,2.43,2.35h22l-25.29,36a11.12,11.12,0,0,0-1.58,6.4v9.47a2.45,2.45,0,0,0,2.21,2.38,1.74,1.74,0,0,0,.81-.21,47.59,47.59,0,0,1,22.25-5.42,48.78,48.78,0,0,1,22.3,5.32,1.9,1.9,0,0,0,.9.24,2.41,2.41,0,0,0,2.19-2.37v-10A4.24,4.24,0,0,0,291,59.14C284.15,55.3,276.19,54,268.56,54L267,54l21.84-30.94c2-2.78,3.18-4.53,3.18-5.87v-8a2.32,2.32,0,0,0-2.44-2.35"/></clipPath><clipPath id="clip-path-21"><path class="cls-2" d="M144.37,5.63c-7.54,0-14.6,3.86-17.72,12.1C123.06,9.49,118,5.63,110,5.63S96.24,9.49,93.12,17.73h-.23V9.19A2.39,2.39,0,0,0,90.57,7H78.62a2.4,2.4,0,0,0-2.48,2.33V74.69a2.38,2.38,0,0,0,2.28,2.14H91.25a2.41,2.41,0,0,0,2.48-2.34V39.86c0-7.56-.37-18,8.86-18s7.9,10.73,7.9,18V74.51a2.39,2.39,0,0,0,2.31,2.32h12.8a2.41,2.41,0,0,0,2.49-2.34l0-34.63c0-3.71-.11-9.21,1.21-12.51A8.5,8.5,0,0,1,137,22c3.72,0,6.58,1.24,7.54,5.63.6,2.62.36,9.48.36,12.23V74.51a2.4,2.4,0,0,0,2.31,2.32H160a2.41,2.41,0,0,0,2.49-2.34V33.27c0-7,.84-15-3.23-20.49a18.27,18.27,0,0,0-14.85-7.15"/></clipPath><clipPath id="clip-path-22"><path class="cls-2" d="M36.33,5C24.13,5,10.51,9.52,7.66,24.49a2.21,2.21,0,0,0,1.91,2.64L22,28.49a2.71,2.71,0,0,0,2.23-2.34c1.07-5.16,5.42-7.64,10.3-7.64,2.65,0,5.65,1,7.2,3.3C43.53,24.42,43.3,28,43.3,31v1.65c-7.45.83-17.17,1.39-24.12,4.41C11.13,40.54,5.5,47.57,5.5,57.91c0,13.22,8.39,19.84,19.2,19.84,9.11,0,14.1-2.15,21.13-9.26,2.34,3.34,3.1,5,7.37,8.48a2.81,2.81,0,0,0,1.33.34,2.51,2.51,0,0,0,1.7-.64l0,0c2.58-2.23,7.22-6.28,9.84-8.44,1.06-.85.87-2.21,0-3.38-2.34-3.2-4.84-5.83-4.84-11.79V33.24c0-8.41.61-16.13-5.64-21.9C50.73,6.65,42.58,5,36.33,5M32,64.93c-4.91,0-7.79-3.72-7.79-9.23,0-10.85,9.78-12.8,19.08-12.8v2.73c0,5,.11,9.11-2.41,13.52-2,3.57-5.28,5.77-8.88,5.77"/></clipPath><clipPath id="clip-path-23"><path class="cls-2" d="M204.48,5c-12.22,0-25.85,4.52-28.69,19.49a2.23,2.23,0,0,0,1.92,2.64l12.42,1.35a2.73,2.73,0,0,0,2.23-2.34c1.06-5.16,5.41-7.64,10.31-7.64,2.63,0,5.63,1,7.2,3.3,1.79,2.62,1.56,6.2,1.56,9.23v1.65c-7.44.83-17.15,1.39-24.12,4.41-8,3.45-13.69,10.47-13.69,20.81,0,13.22,8.41,19.84,19.21,19.84,9.12,0,14.11-2.15,21.14-9.26,2.33,3.34,3.09,5,7.35,8.48a2.85,2.85,0,0,0,1.34.34,2.5,2.5,0,0,0,1.7-.64l0,0c2.56-2.23,7.21-6.28,9.84-8.44,1-.85.86-2.21,0-3.38-2.35-3.2-4.84-5.83-4.84-11.79V33.24c0-8.41.6-16.13-5.64-21.9C218.86,6.65,210.72,5,204.48,5m-4.33,59.93c-4.91,0-7.8-3.72-7.8-9.23,0-10.85,9.8-12.8,19.09-12.8v2.73c0,5,.12,9.11-2.4,13.52-2,3.57-5.28,5.77-8.88,5.77"/></clipPath><clipPath id="clip-path-24"><path class="cls-2" d="M368.23,41.38A36.68,36.68,0,1,1,331.56,5a36.53,36.53,0,0,1,36.68,36.38"/></clipPath><clipPath id="clip-path-25"><path class="cls-2" d="M320,55V28.3A1.4,1.4,0,0,1,322,27l28.15,13.11a1.39,1.39,0,0,1,0,2.51L322,56.2A1.4,1.4,0,0,1,320,55"/></clipPath><clipPath id="clip-path-26"><path class="cls-2" d="M301.79,139.89a1.59,1.59,0,0,1-1.58-1.58v-36a1.59,1.59,0,0,1,1.58-1.58h3.51a2.14,2.14,0,0,1,2,1.54l.27,1.08a12.3,12.3,0,0,1,4-2.51,13,13,0,0,1,4.8-.93,10.38,10.38,0,0,1,8.52,3.88q3.14,3.88,3.14,10.49a19.47,19.47,0,0,1-1.44,7.7,12.27,12.27,0,0,1-4.16,5.33,10.54,10.54,0,0,1-6.27,1.94,13.17,13.17,0,0,1-4.33-.71,10.47,10.47,0,0,1-3.5-2v11.75a1.59,1.59,0,0,1-1.58,1.58Zm12-34a10.71,10.71,0,0,0-5.44,1.47v14.37a10.33,10.33,0,0,0,5.44,1.47,5.23,5.23,0,0,0,4.58-2.08q1.47-2.08,1.47-6.55T318.36,108a5.22,5.22,0,0,0-4.61-2.08Zm20.36,22.72a1.59,1.59,0,0,1-1.58-1.58V102.31a1.58,1.58,0,0,1,1.58-1.58h3.51a2.1,2.1,0,0,1,2,1.55l.63,2.61a15.81,15.81,0,0,1,4.19-3.41,9.06,9.06,0,0,1,4.19-1,16,16,0,0,1,2.22.16V108a16.73,16.73,0,0,0-3.44-.33,17.77,17.77,0,0,0-6.72,1.26v18.14a1.59,1.59,0,0,1-1.58,1.58Zm22.47,0a1.59,1.59,0,0,1-1.58-1.58V102.31a1.59,1.59,0,0,1,1.58-1.58h4.94a1.59,1.59,0,0,1,1.58,1.58v24.75a1.59,1.59,0,0,1-1.58,1.58Zm2.47-32.23a4.88,4.88,0,0,1-3.39-1.15,4.43,4.43,0,0,1,0-6.23,5.58,5.58,0,0,1,6.77,0,4.43,4.43,0,0,1,0,6.23,4.88,4.88,0,0,1-3.39,1.15Zm46.17,32.23a1.59,1.59,0,0,1-1.58-1.58V109.74q0-3.71-3.39-3.71a14.27,14.27,0,0,0-6.05,1.42v19.61a1.59,1.59,0,0,1-1.58,1.59h-4.94a1.59,1.59,0,0,1-1.58-1.58V109.74q0-3.71-3.39-3.71a13.7,13.7,0,0,0-6.11,1.47v19.55a1.59,1.59,0,0,1-1.58,1.59h-4.94a1.59,1.59,0,0,1-1.58-1.58V102.31a1.58,1.58,0,0,1,1.58-1.58h3.51a2.18,2.18,0,0,1,2,1.53l.31,1.15a24.09,24.09,0,0,1,5.3-2.7,15.17,15.17,0,0,1,4.86-.79q5,0,7.05,3.5a22.87,22.87,0,0,1,5.33-2.68,16.47,16.47,0,0,1,5.16-.82,8.16,8.16,0,0,1,6,2.13,8,8,0,0,1,2.14,6v19.06a1.59,1.59,0,0,1-1.58,1.59Zm19.21-12q.22,3.61,2.22,5.22t6.28,1.61a45,45,0,0,0,7.12-1,1.23,1.23,0,0,1,1.54,1.27v2.12a2.48,2.48,0,0,1-1.47,2.16,17.34,17.34,0,0,1-3.16,1,28,28,0,0,1-5.58.55q-7.05,0-10.75-3.77t-3.69-11q0-7,3.67-10.87t10.16-3.88q5.5,0,8.47,3t3,8.49a25.5,25.5,0,0,1-.17,2.73,4.59,4.59,0,0,1-.13,1,1.94,1.94,0,0,1-1.85,1.56Zm6.05-11.2a5.76,5.76,0,0,0-4.3,1.61,7.17,7.17,0,0,0-1.8,4.67h10.88v-.93q0-5.35-4.78-5.35Z"/></clipPath><clipPath id="clip-path-27"><path class="cls-2" d="M461.37,129.23a2.51,2.51,0,0,1-2.17-1.49l-9.72-25a1,1,0,0,1,1-1.49H456a2.25,2.25,0,0,1,2,1.53L463.69,122l5.77-19.31a2.25,2.25,0,0,1,2-1.51h5.28a1,1,0,0,1,1,1.49l-9.67,25a2.51,2.51,0,0,1-2.17,1.49Z"/></clipPath><clipPath id="clip-path-28"><path class="cls-2" d="M482.64,129.23a1.58,1.58,0,0,1-1.59-1.59V102.81a1.59,1.59,0,0,1,1.59-1.59h4.86a1.58,1.58,0,0,1,1.59,1.59v24.83a1.59,1.59,0,0,1-1.59,1.59Z"/></clipPath><clipPath id="clip-path-29"><path class="cls-2" d="M485.74,95.89a5.12,5.12,0,0,1-3.4-1.08,4,4,0,0,1,0-5.85,5.92,5.92,0,0,1,6.81,0,4,4,0,0,1,0,5.85,5.12,5.12,0,0,1-3.4,1.08Z"/></clipPath><clipPath id="clip-path-30"><path class="cls-2" d="M517,130a2.19,2.19,0,0,1-2-1.53l-.26-1a12.16,12.16,0,0,1-8.3,3.08,11,11,0,0,1-10.48-6.77,18.65,18.65,0,0,1-1.5-7.76q0-6.82,3.33-10.92a10.79,10.79,0,0,1,8.81-4.1,12.47,12.47,0,0,1,7.74,2.48V90.81a1.58,1.58,0,0,1,1.59-1.58H521a1.59,1.59,0,0,1,1.59,1.58v37.56A1.59,1.59,0,0,1,521,130Zm-7.86-5.45a9.72,9.72,0,0,0,5.2-1.54V108.44a11.15,11.15,0,0,0-5.59-1.38,5,5,0,0,0-4.46,2.17q-1.47,2.17-1.47,6.58t1.55,6.55a5.5,5.5,0,0,0,4.77,2.15Z"/></clipPath><clipPath id="clip-path-31"><path class="cls-2" d="M534.15,116.49q.22,3.58,2.24,5.18t6.32,1.6a46.12,46.12,0,0,0,7.19-1,1.23,1.23,0,0,1,1.54,1.26v2.1a2.44,2.44,0,0,1-1.48,2.14,17.65,17.65,0,0,1-3.19,1,28.62,28.62,0,0,1-5.62.54q-7.1,0-10.82-3.74t-3.72-11q0-6.94,3.69-10.79t10.24-3.85q5.54,0,8.53,3t3,8.43a25,25,0,0,1-.17,2.71c-.11,1-.12.92-.12.92a1.94,1.94,0,0,1-1.85,1.57Zm6.1-11.12a5.85,5.85,0,0,0-4.34,1.6,7.07,7.07,0,0,0-1.82,4.64h11v-.92q0-5.31-4.81-5.31Z"/></clipPath><clipPath id="clip-path-32"><path class="cls-2" d="M570.14,129.23q-6.62,0-10.34-3.88t-3.72-10.82q0-6.89,3.72-10.76t10.34-3.88q6.62,0,10.34,3.88t3.72,10.76q0,6.94-3.72,10.82t-10.34,3.88Zm0-6.07q5.84,0,5.84-8.62T570.14,106q-5.84,0-5.84,8.57t5.84,8.62Z"/></clipPath></defs><title>amazonLogo</title><g class="cls-3"><rect x="371.54" y="0.63" width="62.67" height="81.2"/></g><g class="cls-4"><rect x="58.8" y="79.08" width="210.56" height="54.86"/></g><g class="cls-5"><rect x="237.49" y="74.78" width="51.23" height="50.29"/></g><g class="cls-6"><rect x="237.62" y="1.85" width="60.66" height="78.32"/></g><g class="cls-7"><rect x="71.14" y="0.63" width="96.38" height="81.2"/></g><g class="cls-8"><rect x="0.5" width="71.31" height="82.75"/></g><g class="cls-9"><rect x="168.63" width="71.32" height="82.75"/></g><g class="cls-10"><rect class="cls-11" x="289.88" width="83.35" height="82.75"/></g><g class="cls-12"><rect class="cls-13" x="315.01" y="21.91" width="40.96" height="39.43"/></g><g class="cls-14"><rect x="295.2" y="82.89" width="152" height="62"/></g><g class="cls-15"><rect x="444.38" y="96.23" width="38.52" height="38"/></g><g class="cls-16"><rect x="476.05" y="96.23" width="18.04" height="38"/></g><g class="cls-17"><rect x="476.05" y="82.89" width="19.38" height="18"/></g><g class="cls-18"><rect x="489.45" y="84.23" width="38.13" height="51.33"/></g><g class="cls-19"><rect x="521.6" y="94.89" width="35.45" height="39.33"/></g><g class="cls-20"><rect x="551.07" y="94.89" width="38.13" height="39.33"/></g></svg>